<?xml version="1.0" encoding="UTF-8"?>
<svg version="1.1" xmlns="http://www.w3.org/2000/svg" width="815" height="635">
<path d="M0 0 C8.23767185 7.7341151 15.8565549 16.43294595 19.4921875 27.33984375 C21.75677597 28.87674446 24.00860707 30.27429676 26.3671875 31.65234375 C41.54051225 40.86083951 55.3424032 51.4331932 67.99560547 63.87841797 C69.24463339 65.09810495 70.52322404 66.28742371 71.80859375 67.46875 C80.52939299 75.6257804 87.42296431 85.86605143 93.0546875 96.33984375 C93.37695312 96.93804932 93.69921875 97.53625488 94.03125 98.15258789 C95.58418415 101.16391881 96.61092753 103.84153322 97.39453125 107.15234375 C98.1374246 110.48943713 98.1374246 110.48943713 100.8046875 111.5625 C101.6915625 111.81902344 102.5784375 112.07554687 103.4921875 112.33984375 C117.22900062 121.12347906 133.2667164 133.36192548 140.4296875 148.21484375 C145.00662743 156.60771222 153.32991016 160.82059956 161.16845703 165.81884766 C164.41916816 167.94659827 167.49787718 170.25725942 170.5546875 172.65234375 C171.57820312 173.45027344 172.60171875 174.24820313 173.65625 175.0703125 C175.45806828 176.51226349 177.2463492 177.97142499 179.015625 179.453125 C183.60858662 183.28059302 188.24312349 186.42086328 193.4921875 189.27734375 C202.31132508 194.10948627 208.98831893 199.2839369 213.4921875 208.33984375 C215.24703285 210.25145566 215.24703285 210.25145566 217.1796875 211.71484375 C217.80230469 212.21757812 218.42492187 212.7203125 219.06640625 213.23828125 C219.53691406 213.60179687 220.00742187 213.9653125 220.4921875 214.33984375 C219.4921875 217.33984375 219.4921875 217.33984375 217.3671875 218.52734375 C214.4921875 219.33984375 214.4921875 219.33984375 211.1171875 219.27734375 C206.87146677 219.35054583 204.24131092 220.39318351 200.4921875 222.33984375 C200.05777344 222.87609375 199.62335937 223.41234375 199.17578125 223.96484375 C197.4921875 225.33984375 197.4921875 225.33984375 194.57421875 225.4140625 C192.95580078 225.22263672 192.95580078 225.22263672 191.3046875 225.02734375 C190.21800781 224.90746094 189.13132812 224.78757812 188.01171875 224.6640625 C187.18027344 224.55707031 186.34882812 224.45007813 185.4921875 224.33984375 C188.30714422 232.45354254 193.01507976 237.08365637 200.4921875 241.21484375 C205.74335393 244.22123674 209.66718063 247.94036578 212.4921875 253.33984375 C214.78956574 262.75025845 210.24613748 272.55336707 205.8046875 280.83984375 C198.68676718 291.70593477 185.87559226 295.81787814 173.71875 298.46875 C165.48105172 299.89516989 157.13412066 299.55187381 148.8046875 299.46484375 C147.12044805 299.45479053 145.43620277 299.44566883 143.75195312 299.4375 C139.66521813 299.41567971 135.57876875 299.38128011 131.4921875 299.33984375 C152.20420177 303.85904721 174.85599236 306.74812616 195.4921875 300.33984375 C195.94470918 313.84845397 195.32594238 324.37070283 186.4921875 335.33984375 C179.61028059 342.04529151 171.43221328 343.48544495 162.2322998 343.44934082 C157.95935658 343.27859061 153.856241 342.53941527 149.6640625 341.73046875 C148.75376282 341.56238708 147.84346313 341.39430542 146.90557861 341.22113037 C144.01615191 340.68571319 141.12919623 340.1381328 138.2421875 339.58984375 C136.3543215 339.23745075 134.46630129 338.88588287 132.578125 338.53515625 C131.64383667 338.36109253 130.70954834 338.18702881 129.74694824 338.00769043 C127.85821852 337.6561834 125.96930194 337.30567889 124.0802002 336.95617676 C119.20470318 336.05022206 114.33991428 335.10960484 109.48242188 334.11132812 C108.50154602 333.91649841 107.52067017 333.7216687 106.5100708 333.52093506 C104.65322266 333.15197605 102.79901114 332.76936214 100.94842529 332.37017822 C95.70372059 331.3475488 91.68354162 331.35057606 86.51870728 332.78625488 C48.13347309 343.27203379 -4.1661212 328.23796021 -38.88183594 311.17285156 C-43.53684415 308.90662316 -46.36681781 307.64863842 -51.5078125 309.33984375 C-54.44553097 310.4806837 -57.31846165 311.74176584 -60.1953125 313.02734375 C-119.60180391 338.69482237 -179.53931335 328.15017693 -240.15777588 313.0552063 C-252.35136865 310.02107679 -264.53994166 307.1398861 -276.8828125 304.77734375 C-278.06198242 304.55038818 -279.24115234 304.32343262 -280.45605469 304.08959961 C-295.45186292 301.30679432 -310.49233997 299.80124556 -325.67626953 298.53491211 C-328.73905248 298.27891179 -331.80116917 298.01584366 -334.86328125 297.75195312 C-404.93314859 291.78605889 -480.95038266 294.63729589 -537.8671875 341.20703125 C-550.11757647 351.56296116 -560.30911835 363.23867329 -569.5078125 376.33984375 C-570.5078125 374.33984375 -570.5078125 374.33984375 -569.66601562 371.60717773 C-569.21162109 370.44516846 -568.75722656 369.28315918 -568.2890625 368.0859375 C-568.04002167 367.44602875 -567.79098083 366.80612 -567.53439331 366.14682007 C-566.701804 364.01973528 -565.85592833 361.89828215 -565.0078125 359.77734375 C-564.71803528 359.04687836 -564.42825806 358.31641296 -564.12969971 357.56381226 C-538.13559239 292.15742131 -503.45973698 227.85091412 -455.1328125 176.15234375 C-453.38200443 174.27647796 -451.65263322 172.38037431 -449.9453125 170.46484375 C-438.76953285 157.95861414 -426.5314995 146.65011577 -413.13085938 136.56445312 C-411.56447489 135.38259624 -410.01239493 134.18185373 -408.4609375 132.98046875 C-372.51523748 105.40307984 -330.74849594 88.78577038 -285.5078125 85.33984375 C-284.43442627 85.25524902 -284.43442627 85.25524902 -283.33935547 85.16894531 C-279.3973097 84.86158396 -275.45422754 84.58448286 -271.5078125 84.33984375 C-300.510548 74.0930253 -329.54852209 66.40850529 -360.5078125 70.33984375 C-355.7502089 65.12852739 -349.64630074 62.45006894 -343.4453125 59.27734375 C-342.80321838 58.94725311 -342.16112427 58.61716248 -341.49957275 58.27706909 C-308.07896717 41.16306348 -271.17701078 28.27467283 -233.5078125 25.33984375 C-232.65348633 25.2728125 -231.79916016 25.20578125 -230.91894531 25.13671875 C-200.39279998 22.92975378 -171.53703505 26.9856367 -142.5078125 36.33984375 C-169.57546383 15.18093128 -203.99677127 6.54950867 -236.5078125 -2.66015625 C-233.45789054 -4.69343755 -231.94798968 -5.09993 -228.4140625 -5.66015625 C-227.39304443 -5.82410889 -226.37202637 -5.98806152 -225.32006836 -6.15698242 C-224.22702393 -6.32302979 -223.13397949 -6.48907715 -222.0078125 -6.66015625 C-220.8844751 -6.83458252 -219.7611377 -7.00900879 -218.60375977 -7.1887207 C-208.92994769 -8.65907415 -199.25686462 -9.83385091 -189.5078125 -10.66015625 C-188.22648437 -10.77230469 -186.94515625 -10.88445313 -185.625 -11 C-155.27248789 -13.27488027 -114.69338281 -15.04847507 -89.5078125 5.33984375 C-90.55733006 -2.47725256 -93.17452245 -8.19076591 -99.42553711 -13.19555664 C-105.17327557 -17.11141549 -110.96044745 -19.62086777 -117.5078125 -21.91015625 C-119.38506727 -22.5757053 -121.26020661 -23.24726214 -123.1328125 -23.92578125 C-123.95007813 -24.21227539 -124.76734375 -24.49876953 -125.609375 -24.79394531 C-127.5078125 -25.66015625 -127.5078125 -25.66015625 -128.5078125 -27.66015625 C-86.22969227 -31.15215438 -33.6736644 -29.22714195 0 0 Z M-69.5078125 113.33984375 C-69.5078125 113.99984375 -69.5078125 114.65984375 -69.5078125 115.33984375 C-68.1878125 115.99984375 -66.8678125 116.65984375 -65.5078125 117.33984375 C-66.54679687 117.49839844 -67.58578125 117.65695313 -68.65625 117.8203125 C-82.14458964 119.8995289 -82.14458964 119.8995289 -93.34375 127.21875 C-94.74005658 129.26705532 -94.74005658 129.26705532 -94.21484375 131.55859375 C-93.91964844 132.31140625 -93.62445313 133.06421875 -93.3203125 133.83984375 C-93.03800781 134.59265625 -92.75570313 135.34546875 -92.46484375 136.12109375 C-91.54022132 138.35576378 -91.54022132 138.35576378 -90.35546875 140.46484375 C-89.5078125 142.33984375 -89.5078125 142.33984375 -90.1328125 144.83984375 C-90.2565625 145.66484375 -90.3803125 146.48984375 -90.5078125 147.33984375 C-88.79899486 149.71564393 -88.79899486 149.71564393 -86.5078125 151.33984375 C-85.8478125 151.33984375 -85.1878125 151.33984375 -84.5078125 151.33984375 C-84.25515625 151.93796875 -84.0025 152.53609375 -83.7421875 153.15234375 C-82.35577074 155.60928485 -81.00751927 156.66564336 -78.7578125 158.33984375 C-75.20340327 161.31250614 -73.43687538 164.07474248 -71.5078125 168.27734375 C-65.45687139 181.19996533 -53.52081388 187.89884687 -40.53369141 192.6730957 C-37.87226553 193.60661151 -35.19696601 194.48977699 -32.5078125 195.33984375 C-30.32955389 190.98332652 -31.36516295 186.17114156 -32.6328125 181.65234375 C-33.86440279 178.23190817 -34.5739493 177.28214995 -37.4453125 174.77734375 C-40.5474551 173.05657233 -40.5474551 173.05657233 -44.5078125 173.33984375 C-42.92443365 168.98555192 -41.40817418 166.9762164 -37.3203125 164.96484375 C-36.05735984 164.40504851 -34.78877643 163.85709759 -33.5078125 163.33984375 C-34.0646875 162.92734375 -34.6215625 162.51484375 -35.1953125 162.08984375 C-35.9584375 161.51234375 -36.7215625 160.93484375 -37.5078125 160.33984375 C-38.3121875 159.80359375 -39.1165625 159.26734375 -39.9453125 158.71484375 C-43.47296651 155.44531076 -45.36661528 151.60401523 -47.5078125 147.33984375 C-46.8271875 147.66984375 -46.1465625 147.99984375 -45.4453125 148.33984375 C-40.50823505 150.02055097 -36.8539225 149.9272372 -32.0703125 147.83984375 C-31.2246875 147.34484375 -30.3790625 146.84984375 -29.5078125 146.33984375 C-30.28447345 140.47400972 -33.37644731 137.35814 -37.5078125 133.33984375 C-40.22814523 131.38324324 -40.22814523 131.38324324 -42.5078125 130.33984375 C-41.5178125 128.35984375 -40.5278125 126.37984375 -39.5078125 124.33984375 C-48.89059741 115.5434829 -56.80694746 113.11788689 -69.5078125 113.33984375 Z M-297.5078125 117.33984375 C-298.54180176 117.53852051 -299.57579102 117.73719727 -300.64111328 117.94189453 C-322.86788174 122.36340189 -344.12278116 129.44398724 -364.5078125 139.33984375 C-365.73250244 139.93273193 -365.73250244 139.93273193 -366.98193359 140.53759766 C-389.60113012 151.6257763 -411.64571141 165.85866344 -430.1015625 183.109375 C-432.04877329 184.91433825 -434.02662316 186.64185818 -436.04296875 188.3671875 C-441.19901594 192.86566752 -446.03526647 197.68124214 -450.87084961 202.51757812 C-452.43389984 204.07844702 -454.00478615 205.63112263 -455.57617188 207.18359375 C-462.00617513 213.57776185 -467.87036909 220.22454227 -473.5078125 227.33984375 C-474.58025819 228.63384862 -475.65663707 229.92461164 -476.73828125 231.2109375 C-489.82672271 246.93010139 -501.11533802 263.68801643 -511.35693359 281.38232422 C-512.33144595 283.03986349 -513.36117185 284.66475013 -514.40234375 286.28125 C-514.76714844 286.96058594 -515.13195312 287.63992188 -515.5078125 288.33984375 C-515.1778125 288.99984375 -514.8478125 289.65984375 -514.5078125 290.33984375 C-513.89123779 289.69390259 -513.89123779 289.69390259 -513.26220703 289.03491211 C-508.91352861 284.57134688 -504.35220262 280.65562508 -499.3828125 276.90234375 C-498.63708984 276.33741211 -497.89136719 275.77248047 -497.12304688 275.19042969 C-490.81112191 270.46595114 -484.38021175 266.22006917 -477.5078125 262.33984375 C-476.87439941 261.97938965 -476.24098633 261.61893555 -475.58837891 261.24755859 C-431.21681648 236.19582489 -380.56107054 231.7258337 -331.63232422 245.12744141 C-317.31340318 249.27995306 -303.81457346 255.14229693 -290.22607422 261.18945312 C-229.97767106 287.96881194 -160.15960365 299.12121133 -97.03417969 275.32421875 C-73.77427523 266.26121771 -45.29505108 252.34337371 -30.5078125 231.33984375 C-31.3121875 231.448125 -31.3121875 231.448125 -32.1328125 231.55859375 C-93.23294493 238.79413575 -190.23817482 214.19471772 -241.5078125 180.33984375 C-244.57421875 177.86328125 -244.57421875 177.86328125 -246.5078125 175.33984375 C-246.3203125 172.52734375 -246.3203125 172.52734375 -245.5078125 170.33984375 C-228.05089107 163.94433567 -208.02154115 166.27311063 -189.75146484 166.43579102 C-153.70534444 168.62796554 -153.70534444 168.62796554 -121.5078125 156.33984375 C-120.2534489 153.0623193 -120.2534489 153.0623193 -121.5078125 149.33984375 C-141.60405237 124.15372654 -193.01363221 118.928325 -222.93579102 115.02294922 C-247.1049158 112.39008539 -273.65992639 112.72612965 -297.5078125 117.33984375 Z M87.4921875 167.33984375 C86.15931489 168.00743107 84.82611981 168.67437639 83.4921875 169.33984375 C84.07226562 169.44941406 84.65234375 169.55898437 85.25 169.671875 C89.00366107 170.4337567 92.09876382 171.12673926 95.4921875 172.96484375 C100.39986525 175.21419605 105.40967967 175.03401303 110.4921875 173.33984375 C113.19140625 174.9921875 113.19140625 174.9921875 116.1796875 177.27734375 C117.17355469 178.02886719 118.16742187 178.78039062 119.19140625 179.5546875 C119.95066406 180.14378906 120.70992187 180.73289063 121.4921875 181.33984375 C121.4921875 176.37446058 117.85704426 173.73568446 114.4921875 170.33984375 C110.45516694 166.4420308 106.81196104 162.94637412 100.9921875 162.65234375 C96.02652749 163.06107583 91.85568077 165.05380712 87.4921875 167.33984375 Z " fill="#ffffff" transform="translate(578.5078125,47.66015625)"/>
<path d="M0 0 C4.54216845 3.50985744 6.73690099 7.57488311 7.546875 13.1953125 C8.95005429 28.18381857 5.04673455 43.2118379 1.9453125 57.7734375 C1.67283691 59.05790771 1.40036133 60.34237793 1.11962891 61.66577148 C0.58330902 64.17024214 0.036603 66.67251806 -0.52197266 69.17211914 C-1.98948093 75.958991 -2.84670438 82.24903405 -2.453125 89.1953125 C-0.473125 89.1953125 1.506875 89.1953125 3.546875 89.1953125 C8.91434168 78.76905134 13.94522919 68.18714658 18.921875 57.5703125 C19.24769562 56.87638397 19.57351624 56.18245544 19.90921021 55.46749878 C23.16791762 48.52299478 26.40268873 41.57266295 29.4921875 34.55078125 C29.92998535 33.56094238 30.3677832 32.57110352 30.81884766 31.55126953 C31.60330423 29.76682578 32.37748636 27.97780637 33.13818359 26.18310547 C39.02538134 12.79722119 48.27617628 4.52302548 61.75 -0.859375 C66.71748286 -2.5383287 71.24183352 -2.98638077 76.484375 -3.0546875 C77.66902344 -3.08046875 78.85367188 -3.10625 80.07421875 -3.1328125 C85.24192817 -2.644525 88.45412653 -0.77326001 92.296875 2.6328125 C97.04425769 9.01403469 96.91559256 16.84966306 95.86166382 24.40992737 C95.73973663 25.21308884 95.61780945 26.01625031 95.4921875 26.84375 C95.36147858 27.72953232 95.23076965 28.61531464 95.09609985 29.52793884 C92.86183508 44.17953932 90.0699624 58.74526852 87.37286377 73.3170166 C86.76530256 76.60519804 86.16186786 79.89413105 85.55853844 83.18309116 C84.83496749 87.12627489 84.10895276 91.06900751 83.3828125 95.01171875 C83.24607494 95.7554178 83.10933739 96.49911686 82.96845627 97.26535225 C82.58238095 99.36278363 82.1945519 101.45988271 81.80615234 103.55688477 C81.58647797 104.74596939 81.36680359 105.93505402 81.14047241 107.16017151 C80.6789642 109.51992321 80.13004171 111.86264567 79.546875 114.1953125 C70.966875 114.1953125 62.386875 114.1953125 53.546875 114.1953125 C54.19104049 107.75365756 54.91194598 101.72492216 56.25390625 95.453125 C56.59542363 93.80655488 56.93655452 92.15990457 57.27734375 90.51318359 C57.45442871 89.66520203 57.63151367 88.81722046 57.81396484 87.94354248 C60.53271329 74.86732387 63.1261104 61.78996338 65.046875 48.5703125 C65.20647705 47.50828613 65.3660791 46.44625977 65.53051758 45.35205078 C66.5956034 37.61279636 66.70351759 29.99988463 66.546875 22.1953125 C61.70541329 24.00026039 59.67042385 25.94353007 57.45475769 30.61367798 C56.97248466 31.70402847 56.97248466 31.70402847 56.48046875 32.81640625 C56.12443069 33.58036713 55.76839264 34.344328 55.40156555 35.13143921 C54.24483322 37.62416572 53.11486537 40.12809099 51.984375 42.6328125 C51.18901975 44.35656551 50.39180465 46.07946154 49.59277344 47.80151367 C47.59641866 52.11451634 45.62060303 56.43651505 43.65325928 60.76281738 C41.4262633 65.65908801 39.18719597 70.54979902 36.93774414 75.43579102 C35.87712738 77.74465633 34.82493008 80.05741618 33.78295898 82.37475586 C26.90872075 97.43277762 19.07157233 106.72501929 3.546875 113.1953125 C-4.68464681 115.96117935 -15.01173241 117.2819412 -23.140625 113.5078125 C-28.46698466 110.21494373 -30.79613333 106.14318424 -32.453125 100.1953125 C-32.84376174 89.41641926 -29.97855527 78.36023885 -27.953125 67.8203125 C-27.46907173 65.26948231 -26.98700644 62.71828852 -26.50622559 60.1668396 C-26.20914504 58.59366668 -25.90989387 57.02090144 -25.60803223 55.44863892 C-23.88875105 46.46724928 -23.88875105 46.46724928 -23.35546875 37.35546875 C-23.35869141 36.52080078 -23.36191406 35.68613281 -23.36523438 34.82617188 C-23.37361328 33.97861328 -23.38199219 33.13105469 -23.390625 32.2578125 C-23.39513672 31.38318359 -23.39964844 30.50855469 -23.40429688 29.60742188 C-23.41597666 27.47002203 -23.43390811 25.33265787 -23.453125 23.1953125 C-26.40040035 23.29700411 -26.40040035 23.29700411 -29.453125 24.1953125 C-30.55631862 26.44345212 -30.55631862 26.44345212 -31.453125 29.1953125 C-32.36197117 31.19996846 -33.28520825 33.19813089 -34.21875 35.19140625 C-34.77199951 36.37460449 -35.32524902 37.55780273 -35.89526367 38.77685547 C-36.18936127 39.40412537 -36.48345886 40.03139526 -36.78646851 40.67767334 C-37.71999831 42.66880162 -38.65183276 44.66071564 -39.58325195 46.65283203 C-40.88702845 49.44090506 -42.19148211 52.22865951 -43.49658203 55.01611328 C-46.25528953 60.9083109 -49.01166041 66.80159821 -51.76516724 72.69622803 C-52.3479256 73.94373357 -52.93083125 75.19117032 -53.5138855 76.4385376 C-58.12236527 86.29985862 -62.67550753 96.18575495 -67.16674805 106.10107422 C-67.79770386 107.48770264 -67.79770386 107.48770264 -68.44140625 108.90234375 C-68.80790283 109.7116333 -69.17439941 110.52092285 -69.55200195 111.35473633 C-70.453125 113.1953125 -70.453125 113.1953125 -71.453125 114.1953125 C-73.30682111 114.28268895 -75.16380041 114.30229403 -77.01953125 114.29296875 C-78.14423828 114.28974609 -79.26894531 114.28652344 -80.42773438 114.28320312 C-81.61173828 114.27482422 -82.79574219 114.26644531 -84.015625 114.2578125 C-85.20349609 114.25330078 -86.39136719 114.24878906 -87.61523438 114.24414062 C-90.56124726 114.23230925 -93.50716181 114.21582537 -96.453125 114.1953125 C-94.59439697 108.23057983 -92.40130965 102.60851782 -89.6796875 96.98828125 C-89.3196312 96.23344452 -88.95957489 95.47860779 -88.58860779 94.70089722 C-87.82038467 93.0916779 -87.04983926 91.48356542 -86.27713013 89.87649536 C-84.23323645 85.62561892 -82.20597546 81.36680627 -80.17578125 77.109375 C-79.77010422 76.25998856 -79.36442719 75.41060211 -78.94645691 74.53547668 C-75.41448163 67.1345589 -71.95428325 59.70250496 -68.515625 52.2578125 C-67.48207629 50.03371219 -66.44822939 47.80975043 -65.4140625 45.5859375 C-63.41934436 41.29304245 -61.44992187 36.98955733 -59.4921875 32.6796875 C-58.54226019 30.62212171 -57.59176688 28.56481711 -56.640625 26.5078125 C-56.23271729 25.59330322 -55.82480957 24.67879395 -55.40454102 23.73657227 C-49.7306471 11.58211805 -41.12820212 4.09588161 -28.73046875 -0.90234375 C-19.71259476 -3.75778249 -8.39297491 -5.12904022 0 0 Z " fill="#ffffff" transform="translate(110.453125,426.8046875)"/>
<path d="M0 0 C1.55082969 0.00748187 3.10166898 0.01316556 4.6525116 0.01715088 C8.68860044 0.03225459 12.7240921 0.07139942 16.75994873 0.1159668 C20.89652432 0.15725386 25.03319861 0.17523246 29.16992188 0.1953125 C37.25287494 0.2379129 45.33534708 0.30597263 53.41796875 0.390625 C51.53541437 6.55836072 49.19568255 12.23181735 46.23046875 17.953125 C45.86244141 18.67564453 45.49441406 19.39816406 45.11523438 20.14257812 C44.22172562 21.89478362 43.320661 23.64313288 42.41796875 25.390625 C41.61696747 25.39427063 40.81596619 25.39791626 39.99069214 25.40167236 C32.42819238 25.43959777 24.86618278 25.49650137 17.30399895 25.57452774 C13.41651641 25.61397452 9.52925943 25.64617643 5.64160156 25.66162109 C1.88712299 25.67680659 -1.86673539 25.71128441 -5.62093735 25.75893402 C-7.05054192 25.77372855 -8.48023505 25.78166491 -9.90991592 25.78250885 C-11.91807698 25.78488568 -13.92615022 25.81429087 -15.93408203 25.84472656 C-17.07547638 25.85360901 -18.21687073 25.86249146 -19.39285278 25.87164307 C-24.23007078 26.65881405 -27.44210156 28.89692403 -30.39453125 32.765625 C-31.71594691 35.68664908 -32.29852138 38.20113897 -32.58203125 41.390625 C-32.25203125 42.050625 -31.92203125 42.710625 -31.58203125 43.390625 C0.09796875 43.885625 0.09796875 43.885625 32.41796875 44.390625 C31.67460547 48.85080466 31.2298582 51.27362949 29.38671875 55.09765625 C28.98839844 55.93103516 28.59007812 56.76441406 28.1796875 57.62304688 C27.76332031 58.47447266 27.34695313 59.32589844 26.91796875 60.203125 C26.50160156 61.07388672 26.08523438 61.94464844 25.65625 62.84179688 C22.57968163 69.22891212 22.57968163 69.22891212 21.41796875 70.390625 C19.38909498 70.49339194 17.35666089 70.52635183 15.32519531 70.5324707 C14.02003967 70.53950516 12.71488403 70.54653961 11.37017822 70.55378723 C10.66792366 70.55560312 9.9656691 70.55741901 9.24213409 70.55928993 C7.04786045 70.56644123 4.8538123 70.58209874 2.65960693 70.60063171 C-3.58073776 70.65315483 -9.82096263 70.70105626 -16.06152344 70.71655273 C-19.87546711 70.72664577 -23.6888494 70.75600737 -27.50257111 70.79787254 C-28.9553426 70.81017372 -30.40819346 70.81530539 -31.86101532 70.81307411 C-33.89796367 70.81071634 -35.93488945 70.83510664 -37.97167969 70.8605957 C-39.13004333 70.86646194 -40.28840698 70.87232819 -41.48187256 70.87837219 C-46.13105523 71.64657702 -48.5080299 74.05738195 -51.39453125 77.640625 C-53.02490431 81.41622578 -52.79015158 84.29759187 -52.58203125 88.390625 C-49.87070915 89.74628605 -47.69895127 89.55293585 -44.66357422 89.59594727 C-42.80187088 89.6258651 -42.80187088 89.6258651 -40.90255737 89.65638733 C-39.54311245 89.6733716 -38.1836662 89.69025041 -36.82421875 89.70703125 C-35.43701558 89.72760081 -34.04981868 89.74859728 -32.66262817 89.77000427 C-29.0097562 89.82522481 -25.35682766 89.87463411 -21.70385742 89.92285156 C-17.97699951 89.97306675 -14.25022384 90.02875271 -10.5234375 90.08398438 C-3.20970504 90.19156571 4.10409576 90.29301068 11.41796875 90.390625 C9.53541437 96.55836072 7.19568255 102.23181735 4.23046875 107.953125 C3.67842773 109.0369043 3.67842773 109.0369043 3.11523438 110.14257812 C2.22172562 111.89478362 1.320661 113.64313288 0.41796875 115.390625 C-8.29265316 115.46037746 -17.00317775 115.51356369 -25.71401882 115.54606152 C-29.75956074 115.56166505 -33.80491046 115.58280513 -37.8503418 115.61694336 C-41.76016674 115.64972781 -45.66980772 115.66751789 -49.5797596 115.67525673 C-51.06558182 115.68076621 -52.55139486 115.69152427 -54.03713799 115.70781517 C-72.24229271 115.89934978 -72.24229271 115.89934978 -79.51953125 110.015625 C-84.07598727 104.21649916 -84.31711556 98.52094278 -83.58203125 91.390625 C-80.53632505 77.96182947 -73.17935045 67.9879442 -63.58203125 58.390625 C-63.47361174 56.47521362 -63.39625046 54.55802727 -63.33203125 52.640625 C-62.2058653 37.26089601 -54.06633209 23.87869605 -42.984375 13.421875 C-29.9892885 2.43415958 -16.54608887 -0.23814668 0 0 Z " fill="#ffffff" transform="translate(638.58203125,425.609375)"/>
<path d="M0 0 C9.11904592 -0.06968864 18.23799934 -0.12290666 27.35725403 -0.15543652 C31.59226934 -0.1710538 35.82710168 -0.19221954 40.06201172 -0.22631836 C44.15337915 -0.25905307 48.24457122 -0.2768826 52.33605957 -0.28463173 C53.89248411 -0.29015002 55.44889968 -0.30092569 57.00524902 -0.31719017 C72.33774479 -0.47096427 72.33774479 -0.47096427 79 3 C83.32707718 7.32707718 85.08511886 11.51364686 85.375 17.5625 C85.00070927 32.42404358 76.42757652 45.40860153 66.109375 55.47387695 C53.17551731 67.51669473 40.28167325 69.55986056 23 71 C39.83 78.92 39.83 78.92 57 87 C55.66790873 90.99627382 54.41573996 94.44423239 52.6171875 98.1796875 C52.17246094 99.1078125 51.72773437 100.0359375 51.26953125 100.9921875 C50.80933594 101.94351563 50.34914063 102.89484375 49.875 103.875 C49.17310547 105.33679688 49.17310547 105.33679688 48.45703125 106.828125 C47.30785155 109.22029499 46.15542757 111.61084316 45 114 C40.61896834 113.37014583 36.98495376 111.71305398 33.06640625 109.75390625 C32.39966888 109.42680161 31.73293152 109.09969696 31.04598999 108.76268005 C29.61996872 108.06268301 28.19515444 107.36022261 26.77145386 106.65551758 C23.0648008 104.82141999 19.34897528 103.00614015 15.6328125 101.19140625 C14.89580612 100.83116364 14.15879974 100.47092102 13.39945984 100.09976196 C4.02510973 95.53066791 -5.47240236 91.23901671 -15 87 C-15.22558594 87.76699219 -15.45117188 88.53398438 -15.68359375 89.32421875 C-17.47342352 94.32193333 -19.76201393 99.03256502 -22.0625 103.8125 C-22.52205078 104.77865234 -22.98160156 105.74480469 -23.45507812 106.74023438 C-26.86452367 113.86452367 -26.86452367 113.86452367 -28 115 C-29.78071246 115.08726223 -31.5648314 115.10699041 -33.34765625 115.09765625 C-34.42724609 115.09443359 -35.50683594 115.09121094 -36.61914062 115.08789062 C-37.75544922 115.07951172 -38.89175781 115.07113281 -40.0625 115.0625 C-41.20267578 115.05798828 -42.34285156 115.05347656 -43.51757812 115.04882812 C-46.34510351 115.03699747 -49.1725264 115.0205141 -52 115 C-51.34019505 110.5921875 -49.73238074 106.77595143 -47.90234375 102.75 C-47.43351524 101.70815552 -47.43351524 101.70815552 -46.95521545 100.64526367 C-46.29130048 99.17487737 -45.62460594 97.70574336 -44.95532227 96.23779297 C-43.95537581 94.03930191 -42.97037999 91.83454828 -41.98632812 89.62890625 C-33.96619929 71.84832796 -25.07519806 55.41145856 -6.54296875 46.8671875 C1.19762058 44.07461061 9.39544335 43.87119934 17.54296875 43.82421875 C19.12696681 43.80104756 20.71095128 43.77693139 22.29492188 43.75195312 C24.75034145 43.71675262 27.20524627 43.68740366 29.66088867 43.67407227 C32.05968183 43.65856231 34.45705401 43.61838351 36.85546875 43.57421875 C37.5837236 43.57612717 38.31197845 43.57803558 39.06230164 43.58000183 C44.15897521 43.45841114 47.06558417 42.19747359 51 39 C53.38651161 35.79055335 54.58074471 32.98292522 55 29 C54.505 27.515 54.505 27.515 54 26 C22.32 25.505 22.32 25.505 -10 25 C-9.25168936 20.51013614 -8.80233627 18.10057881 -6.93359375 14.2578125 C-6.3293457 13.00097656 -6.3293457 13.00097656 -5.71289062 11.71875 C-5.29201172 10.8628125 -4.87113281 10.006875 -4.4375 9.125 C-4.01275391 8.24585938 -3.58800781 7.36671875 -3.15039062 6.4609375 C-2.10703441 4.30388644 -1.05678116 2.15049712 0 0 Z " fill="#ffffff" transform="translate(703,426)"/>
<path d="M0 0 C1.00506844 -0.00744736 1.00506844 -0.00744736 2.03044128 -0.01504517 C4.25915541 -0.02971132 6.48779816 -0.03647912 8.71655273 -0.04199219 C10.2653758 -0.04774375 11.81419883 -0.05350148 13.36302185 -0.05926514 C16.61897107 -0.06979033 19.87489552 -0.0756218 23.13085938 -0.07910156 C27.28798702 -0.08456361 31.44478335 -0.10853559 35.60180759 -0.13707352 C38.80615666 -0.15577787 42.01042756 -0.16090981 45.21482658 -0.16243744 C46.74612154 -0.16545126 48.27741554 -0.17343659 49.80865669 -0.18662262 C67.79573206 -0.33034818 67.79573206 -0.33034818 73.12623596 4.57781982 C77.70519981 9.76037641 77.93289204 14.26787451 77.86889648 20.89941406 C76.70606107 34.38507477 67.60553891 48.13467477 57.60327148 56.84082031 C44.35766958 67.79860045 32.37323614 69.9135552 15.58764648 71.16113281 C32.41764648 79.08113281 32.41764648 79.08113281 49.58764648 87.16113281 C47.71874487 92.76783766 45.58241029 98.07196532 43.21264648 103.47363281 C42.82592773 104.39208984 42.43920898 105.31054688 42.04077148 106.25683594 C41.65663086 107.12888672 41.27249023 108.0009375 40.87670898 108.89941406 C40.53333496 109.69387939 40.18996094 110.48834473 39.83618164 111.30688477 C38.58764648 113.16113281 38.58764648 113.16113281 36.78427124 113.89118958 C33.98377476 114.23534261 32.70545105 113.59329028 30.19311523 112.33447266 C29.33121582 111.91007904 28.46931641 111.48568542 27.58129883 111.0484314 C26.19225342 110.34238266 26.19225342 110.34238266 24.77514648 109.62207031 C23.81044434 109.14420074 22.84574219 108.66633118 21.85180664 108.17398071 C18.75805523 106.63918022 15.67262402 105.08848312 12.58764648 103.53613281 C8.5487023 101.51761858 4.50648835 99.50575268 0.46264648 97.49707031 C-0.50012207 97.01776062 -1.46289062 96.53845093 -2.45483398 96.0446167 C-9.00591517 92.8021954 -15.57958956 89.77117517 -22.41235352 87.16113281 C-22.74235352 88.29550781 -23.07235352 89.42988281 -23.41235352 90.59863281 C-25.07249726 95.6031241 -27.24107921 100.33080798 -29.47485352 105.09863281 C-30.00369141 106.23546509 -30.00369141 106.23546509 -30.54321289 107.39526367 C-30.88288086 108.11077393 -31.22254883 108.82628418 -31.57250977 109.56347656 C-31.87809814 110.20792725 -32.18368652 110.85237793 -32.49853516 111.51635742 C-33.41235352 113.16113281 -33.41235352 113.16113281 -35.41235352 115.16113281 C-37.8425293 115.38818359 -37.8425293 115.38818359 -40.85766602 115.35644531 C-41.9340332 115.35 -43.01040039 115.34355469 -44.11938477 115.33691406 C-45.24731445 115.32015625 -46.37524414 115.30339844 -47.53735352 115.28613281 C-49.24084961 115.27259766 -49.24084961 115.27259766 -50.97875977 115.25878906 C-53.7901665 115.2351638 -56.6011565 115.20222294 -59.41235352 115.16113281 C-58.75449109 110.40526317 -56.87686289 106.47659345 -54.84204102 102.18457031 C-54.48272491 101.41867584 -54.12340881 100.65278137 -53.75320435 99.86367798 C-52.99102305 98.24357183 -52.22597196 96.62481309 -51.45825195 95.00732422 C-50.30315624 92.5694846 -49.16190015 90.12551217 -48.02172852 87.68066406 C-39.93504335 70.47892406 -31.29913688 54.15734002 -12.56445312 46.82006836 C-0.97716464 43.27224174 11.47760077 43.8209643 23.46826172 43.85571289 C25.84080475 43.85833501 28.21145195 43.83025691 30.58374023 43.79785156 C31.29944687 43.80805832 32.0151535 43.81826508 32.75254822 43.82878113 C38.45456059 43.71792642 40.72500674 42.05759539 44.58764648 38.16113281 C47.81649545 33.26578115 47.6163136 32.33313552 46.58764648 26.16113281 C14.90764648 25.66613281 14.90764648 25.66613281 -17.41235352 25.16113281 C-16.64666679 21.33269921 -16.00246866 18.93889541 -14.38110352 15.55175781 C-13.9827832 14.71515625 -13.58446289 13.87855469 -13.17407227 13.01660156 C-12.75770508 12.15679687 -12.34133789 11.29699219 -11.91235352 10.41113281 C-11.49598633 9.53585937 -11.07961914 8.66058594 -10.65063477 7.75878906 C-6.95231719 0.03899995 -6.95231719 0.03899995 0 0 Z " fill="#ffffff" transform="translate(380.412353515625,425.8388671875)"/>
<path d="M0 0 C9.24 0 18.48 0 28 0 C21.02679377 56.13822766 21.02679377 56.13822766 18.625 74.25 C18.46999023 75.42836426 18.31498047 76.60672852 18.15527344 77.82080078 C18.01379883 78.87509277 17.87232422 79.92938477 17.7265625 81.015625 C17.60877441 81.89508789 17.49098633 82.77455078 17.36962891 83.68066406 C17.02687608 85.8313588 16.56586994 87.89819737 16 90 C20.99156163 87.54105728 23.76954551 83.97193979 27.125 79.6875 C27.6926709 78.9754541 28.2603418 78.2634082 28.84521484 77.52978516 C30.57179659 75.35962475 32.28698835 73.18088046 34 71 C34.96848872 69.77453304 35.93722269 68.54925986 36.90625 67.32421875 C39.61537135 63.89154026 42.30928209 60.44711299 45 57 C50.72168699 49.66987391 56.48593358 42.38417307 62.375 35.1875 C67.49441482 28.92661983 72.45892042 22.56185353 77.33544922 16.11010742 C78.33982282 14.78312181 79.35734071 13.4659911 80.38720703 12.15869141 C82.08256769 9.9592504 82.08256769 9.9592504 83.65576172 7.29052734 C86.40778018 3.12899234 88.27667314 0.41931663 93.26098633 -0.79345703 C97.05559651 -0.98406433 100.70941193 -0.87539454 104.5 -0.625 C105.799375 -0.57988281 107.09875 -0.53476562 108.4375 -0.48828125 C111.62980286 -0.37091717 114.81246575 -0.20702411 118 0 C115.77217537 3.77524355 113.38070732 7.22480488 110.6875 10.6875 C110.25945068 11.23929932 109.83140137 11.79109863 109.39038086 12.35961914 C108.44410661 13.57859683 107.49653342 14.79656699 106.54785156 16.01367188 C104.90133298 18.12661749 103.25899742 20.24276889 101.6171875 22.359375 C91.98427552 34.77103725 82.30880557 47.14592951 72.47558594 59.3996582 C69.61227521 62.97141219 66.77236736 66.55965483 63.95654297 70.16894531 C57.13213836 78.91279192 50.1228816 87.49778764 43 96 C42.55350098 96.53737793 42.10700195 97.07475586 41.64697266 97.62841797 C33.06060668 107.90390512 23.58093617 114.58531915 10 116 C2.77870944 116.57378471 -4.54693917 115.93542575 -10.7421875 111.8515625 C-12.78765316 109.85232205 -13.89524913 107.79044442 -14.27099609 104.95507812 C-14.28081178 95.21006622 -12.82691299 85.6336032 -11.5 76 C-11.37083191 75.04421051 -11.24166382 74.08842102 -11.10858154 73.10366821 C-7.80658504 48.67519079 -3.91215899 24.33680629 0 0 Z " fill="#ffffff" transform="translate(472,427)"/>
<path d="M0 0 C0.76441406 -0.01401855 1.52882813 -0.02803711 2.31640625 -0.04248047 C8.4980563 0.00974751 13.05390757 1.18339441 18.04248047 5.05883789 C22.4972422 10.68931012 20.24400613 20.92522031 19.5168457 27.72332764 C18.46976796 36.4015185 17.21333934 45.04806335 15.93609619 53.69476318 C15.42335748 57.1851487 14.9254458 60.67764548 14.42578125 64.16992188 C13.26732691 72.24206423 12.07525644 80.30897 10.875 88.375 C10.68268799 89.67512024 10.49037598 90.97524048 10.29223633 92.3147583 C9.74670077 95.99316169 9.19495917 99.6705697 8.640625 103.34765625 C8.47657166 104.45386826 8.31251831 105.56008026 8.14349365 106.69981384 C7.99075989 107.70129959 7.83802612 108.70278534 7.68066406 109.73461914 C7.48250092 111.04977257 7.48250092 111.04977257 7.28033447 112.39149475 C6.875 114.375 6.875 114.375 5.875 115.375 C3.87535018 115.46258003 1.8726389 115.48196576 -0.12890625 115.47265625 C-1.95131836 115.46782227 -1.95131836 115.46782227 -3.81054688 115.46289062 C-5.08994141 115.45451172 -6.36933594 115.44613281 -7.6875 115.4375 C-8.97076172 115.43298828 -10.25402344 115.42847656 -11.57617188 115.42382812 C-14.75916022 115.41199545 -17.94205762 115.39551068 -21.125 115.375 C-19.52889848 97.37278929 -17.1481575 79.47020135 -14.81561279 61.55236816 C-14.28380747 57.46226997 -13.75534347 53.37174009 -13.2265625 49.28125 C-12.1958995 41.3120841 -11.16165204 33.34338904 -10.125 25.375 C-12.09520548 25.7358288 -12.09520548 25.7358288 -14.125 26.375 C-15.26608852 28.2323058 -15.26608852 28.2323058 -16.125 30.375 C-16.9741956 31.53421939 -17.86060592 32.66685967 -18.77734375 33.7734375 C-19.30070312 34.41023438 -19.8240625 35.04703125 -20.36328125 35.703125 C-20.92402344 36.37859375 -21.48476563 37.0540625 -22.0625 37.75 C-23.24964492 39.19453475 -24.43582742 40.63986093 -25.62109375 42.0859375 C-26.51030518 43.1702002 -26.51030518 43.1702002 -27.41748047 44.27636719 C-29.85999544 47.2783487 -32.24622227 50.32243381 -34.625 53.375 C-39.10638854 59.11557422 -43.6845776 64.7719472 -48.2890625 70.4140625 C-52.23455225 75.25710442 -56.10816832 80.15117752 -59.95214844 85.07495117 C-64.04857952 90.30853605 -68.23647789 95.46555313 -72.44726562 100.60742188 C-72.95451172 101.22810547 -73.46175781 101.84878906 -73.984375 102.48828125 C-74.76445923 103.41483521 -74.76445923 103.41483521 -75.56030273 104.36010742 C-77.20090999 106.38572672 -77.20090999 106.38572672 -78.58227539 108.8371582 C-81.02645626 112.72210329 -82.60847132 115.02461634 -87.20947266 116.08764648 C-90.86781486 116.26116167 -94.40734059 116.16175467 -98.0625 115.9375 C-99.31869141 115.89689453 -100.57488281 115.85628906 -101.86914062 115.81445312 C-104.95842394 115.70873621 -108.03969098 115.56113033 -111.125 115.375 C-109.92610665 112.09070766 -108.68240756 109.52226299 -106.4375 106.84375 C-105.90882324 106.2048584 -105.38014648 105.5659668 -104.83544922 104.90771484 C-104.27100098 104.23691895 -103.70655273 103.56612305 -103.125 102.875 C-101.93875222 101.44122164 -100.75387096 100.00631165 -99.5703125 98.5703125 C-98.98411133 97.86036133 -98.39791016 97.15041016 -97.79394531 96.41894531 C-95.47041881 93.57333912 -93.22563456 90.67244962 -91 87.75 C-83.33845564 77.71584835 -75.5028159 67.82273981 -67.6015625 57.9765625 C-64.73803991 54.40453947 -61.89800128 50.81596241 -59.08178711 47.20654297 C-53.33882784 39.84755392 -47.44947258 32.61816863 -41.48046875 25.44140625 C-39.40028405 22.9370777 -37.35851972 20.41228408 -35.36328125 17.83984375 C-30.34905313 11.43588638 -25.56283797 6.82180296 -18.125 3.375 C-17.46628906 3.03855469 -16.80757813 2.70210938 -16.12890625 2.35546875 C-10.91060215 0.12777168 -5.59181518 0.07113981 0 0 Z " fill="#ffffff" transform="translate(308.125,425.625)"/>

<path d="" fill="#ffffff" transform="translate(0,0)"/>
</svg>
